<svg width="853.677" height="146.304" viewBox="0 0 225.869 38.71"><path d="M43.9 4.21a1.238 1.238 0 0 1 2.142-1.24l1.589 2.75a1.238 1.238 0 0 1-2.141 1.24zm9.881 4.078c3.058 0 5.824 1.239 7.828 3.243a11.043 11.043 0 0 1 3.243 7.828c0 3.058-1.239 5.824-3.243 7.828a11.033 11.033 0 0 1-7.828 3.243 11.033 11.033 0 0 1-7.828-3.243 11.04 11.04 0 0 1-3.242-7.828c0-3.058 1.238-5.824 3.242-7.828a11.043 11.043 0 0 1 7.828-3.243zm6.156 4.916a8.678 8.678 0 0 0-6.156-2.55c-2.404 0-4.58.975-6.155 2.55a8.678 8.678 0 0 0-2.55 6.155c0 2.405.975 4.58 2.55 6.155a8.678 8.678 0 0 0 6.155 2.55c2.405 0 4.58-.975 6.156-2.55a8.678 8.678 0 0 0 2.549-6.155c0-2.405-.975-4.58-2.55-6.155zm-7.14-11.906a1.24 1.24 0 1 1 2.48 0v3.177a1.24 1.24 0 1 1-2.48 0zm9.166 1.932a1.235 1.235 0 0 1 2.14 1.23l-1.588 2.75a1.235 1.235 0 0 1-2.141-1.23Zm6.968 6.249a1.238 1.238 0 0 1 1.24 2.14l-2.75 1.59a1.238 1.238 0 0 1-1.24-2.141zm2.91 8.896a1.24 1.24 0 1 1 0 2.48h-3.176a1.24 1.24 0 1 1 0-2.48zm-1.93 9.166a1.235 1.235 0 0 1-1.231 2.14l-2.75-1.588a1.235 1.235 0 0 1 1.23-2.141zm-6.25 6.967a1.238 1.238 0 0 1-2.14 1.24l-1.59-2.75a1.238 1.238 0 0 1 2.141-1.24zm-8.895 2.912a1.24 1.24 0 1 1-2.48 0v-3.177a1.24 1.24 0 1 1 2.48 0zm-9.167-1.932a1.235 1.235 0 0 1-2.14-1.23l1.589-2.75a1.235 1.235 0 0 1 2.14 1.23zm-6.967-6.249a1.238 1.238 0 0 1-1.24-2.14l2.75-1.59a1.238 1.238 0 0 1 1.24 2.141zm-2.911-8.896a1.24 1.24 0 1 1 0-2.48h3.176a1.24 1.24 0 1 1 0 2.48zm1.931-9.166a1.235 1.235 0 0 1 1.23-2.14l2.751 1.588a1.235 1.235 0 0 1-1.23 2.141z" fill="#c27a48" fill-opacity="1" stroke-width=".16084"/><path d="M85.112 7.122q.17.315.295.654.07-.174.14-.34.07-.17.154-.324l2.043-3.587q.04-.074.08-.114.045-.045.095-.06.05-.02.115-.025.065-.005.15-.005h.99v6.633h-1.155v-4.15q0-.136.005-.29.01-.16.025-.325l-2.093 3.706q-.155.29-.454.29h-.185q-.305 0-.46-.29L82.74 5.17q.02.17.03.335.01.16.01.3v4.15H81.62V3.321h.994q.085 0 .145.005.065.005.115.025.055.02.095.06.045.04.085.114l2.058 3.597zm7.513-2.208q.544 0 .994.18.45.175.77.51.319.33.494.804.175.47.175 1.054 0 .594-.175 1.069-.175.474-.495.809-.32.33-.77.51-.449.18-.993.18-.55 0-1.004-.18-.45-.18-.774-.51-.32-.335-.495-.81-.175-.474-.175-1.068 0-.585.175-1.054.175-.475.495-.805.324-.334.774-.509.454-.18 1.004-.18zm0 4.146q.574 0 .85-.4.274-.404.274-1.188 0-.785-.275-1.184-.275-.405-.85-.405-.584 0-.863.405-.275.4-.275 1.184 0 .784.275 1.189.28.4.864.4zm3.362.894v-4.96h.779q.12 0 .2.055.085.055.11.17l.085.365q.15-.15.31-.27.16-.125.344-.21.185-.09.39-.14.21-.05.46-.05.404 0 .714.14.31.14.519.39.21.25.315.6.11.344.11.753v3.157h-1.27V6.797q0-.424-.194-.659-.195-.235-.584-.235-.29 0-.545.125-.25.125-.474.35v3.576zm7.628-5.04q.544 0 .994.18.45.175.769.51.32.33.494.804.175.47.175 1.054 0 .594-.175 1.069-.174.474-.494.809-.32.33-.77.51-.449.18-.993.18-.55 0-1.005-.18-.45-.18-.774-.51-.32-.335-.494-.81-.175-.474-.175-1.068 0-.585.175-1.054.175-.475.494-.805.325-.334.774-.509.455-.18 1.005-.18zm0 4.146q.574 0 .849-.4.275-.404.275-1.188 0-.785-.275-1.184-.275-.405-.85-.405-.584 0-.864.405-.274.4-.274 1.184 0 .784.274 1.189.28.4.865.4zm4.86.97q-.644 0-.99-.37-.344-.375-.344-1.024V5.928h-.45q-.1 0-.17-.065-.07-.07-.07-.2V5.16l.755-.145.265-1.309q.045-.205.28-.205h.66V5.03h1.223v.9h-1.224V8.55q0 .22.095.344.095.12.27.12.095 0 .155-.02.064-.025.11-.055.044-.03.08-.05.04-.025.084-.025.055 0 .09.03.035.025.075.085l.385.615q-.26.215-.595.324-.33.11-.684.11zm4.086-5.116q.545 0 .994.18.45.175.77.51.32.33.494.804.175.47.175 1.054 0 .594-.175 1.069-.175.474-.495.809-.32.33-.769.51-.45.18-.994.18-.55 0-1.004-.18-.45-.18-.774-.51-.32-.335-.495-.81-.175-.474-.175-1.068 0-.585.175-1.054.175-.475.495-.805.325-.334.774-.509.455-.18 1.004-.18zm0 4.146q.575 0 .85-.4.274-.404.274-1.188 0-.785-.275-1.184-.274-.405-.849-.405-.584 0-.864.405-.275.4-.275 1.184 0 .784.275 1.189.28.4.864.4zm3.362.894v-4.96h.78q.12 0 .2.055.084.055.109.17l.085.365q.15-.15.31-.27.16-.125.344-.21.185-.09.39-.14.21-.05.46-.05.404 0 .714.14.31.14.52.39.21.25.314.6.11.344.11.753v3.157h-1.269V6.797q0-.424-.195-.659-.195-.235-.584-.235-.29 0-.545.125-.25.125-.474.35v3.576zm7.628-5.04q.544 0 .994.18.45.175.77.51.319.33.494.804.175.47.175 1.054 0 .594-.175 1.069-.175.474-.495.809-.32.33-.77.51-.449.18-.993.18-.55 0-1.004-.18-.45-.18-.774-.51-.32-.335-.495-.81-.175-.474-.175-1.068 0-.585.175-1.054.175-.475.495-.805.324-.334.774-.509.454-.18 1.004-.18zm0 4.146q.574 0 .849-.4.275-.404.275-1.188 0-.785-.275-1.184-.275-.405-.85-.405-.584 0-.863.405-.275.4-.275 1.184 0 .784.275 1.189.28.4.864.4zm4.546-4.066v3.152q0 .43.194.664.195.235.585.235.285 0 .54-.125.254-.13.479-.35V4.995h1.269v4.96h-.78q-.12 0-.204-.055-.08-.06-.105-.174l-.09-.36q-.295.295-.655.48-.354.184-.844.184-.404 0-.714-.14-.31-.14-.52-.39-.21-.249-.32-.594-.104-.344-.104-.759V4.994Zm7.183 1q-.05.084-.11.119-.055.03-.14.03-.09 0-.19-.045-.095-.05-.215-.105-.114-.06-.264-.105-.15-.05-.345-.05-.3 0-.465.14-.164.135-.164.365 0 .155.095.26.094.1.25.18.16.074.354.14.2.064.41.14.21.074.404.179.2.1.355.25.16.15.255.364.094.215.094.515 0 .36-.124.664-.125.305-.37.525-.24.22-.6.344-.354.125-.824.125-.24 0-.474-.045-.235-.045-.45-.125-.215-.084-.404-.194-.185-.11-.32-.24l.295-.48q.054-.085.13-.135.074-.05.194-.05.11 0 .205.06.1.06.215.135.115.07.275.13.16.06.4.06.18 0 .304-.045.13-.045.205-.12.08-.08.115-.18.04-.1.04-.204 0-.22-.165-.34-.165-.125-.415-.215-.25-.09-.54-.185-.284-.095-.534-.26-.25-.164-.414-.434-.165-.27-.165-.714 0-.31.115-.585.115-.28.34-.49.23-.21.564-.334.34-.125.79-.125.244 0 .474.045.23.045.43.13.204.08.369.195.17.115.3.25z" aria-label="Monotonous" style="-inkscape-font-specification:&quot;Carlito Bold&quot;" font-weight="700" font-size="10.2304px" font-family="Carlito" fill="#c27a48" stroke-width=".852538"/><path d="M93.792 16.614q-.169.337-.405.49-.22.135-.558.135-.32 0-.693-.237-.371-.236-.878-.507-.49-.287-1.15-.524-.658-.236-1.52-.236-1.52 0-2.298.743-.76.744-.76 1.944 0 .76.405 1.267.423.49 1.098.862.693.354 1.555.642.879.287 1.791.625.912.32 1.774.777.879.44 1.555 1.115.693.676 1.098 1.656.422.98.422 2.383 0 1.52-.506 2.855-.49 1.335-1.454 2.332-.963.98-2.365 1.555-1.386.574-3.177.574-1.014 0-2.027-.22-.997-.202-1.927-.591-.929-.389-1.757-.93-.828-.54-1.453-1.216l1.318-2.112q.152-.253.405-.406.27-.152.575-.152.405 0 .828.321.44.305 1.014.693.574.372 1.334.693.76.304 1.808.304 1.521 0 2.366-.777.845-.777.845-2.298 0-.862-.423-1.403-.405-.54-1.08-.895-.677-.372-1.555-.625-.862-.27-1.775-.575-.895-.304-1.774-.726-.862-.44-1.537-1.15-.676-.71-1.099-1.757-.405-1.047-.405-2.602 0-1.233.473-2.4.473-1.182 1.385-2.094.913-.913 2.23-1.454 1.336-.557 3.042-.557 1.927 0 3.566.625 1.655.625 2.821 1.757zm18.165-4.225v3.532h-9.226v5.93h7.181v3.397h-7.181v6.049h9.242l-.016 3.532H98.27v-22.44Zm21.73 22.44h-3.414q-.591 0-.946-.27-.355-.288-.524-.71l-1.42-4.41h-8.262l-1.403 4.393q-.135.371-.523.692-.372.305-.93.305h-3.464l8.179-22.44h4.528zm-13.57-8.5h6.253l-2.281-7.096q-.203-.524-.423-1.217-.22-.71-.44-1.538-.202.828-.422 1.538-.22.71-.405 1.233zm20.04-.135v8.635h-4.46v-22.44h6.759q2.247 0 3.852.49 1.605.473 2.62 1.335 1.03.862 1.503 2.062.473 1.2.473 2.636 0 1.098-.304 2.095-.304.98-.896 1.808-.574.81-1.419 1.453-.845.625-1.943 1.014.422.236.794.574.372.321.693.794l5.018 8.179h-4.004q-1.065 0-1.64-.896l-4.088-6.995q-.254-.406-.575-.575-.304-.169-.879-.169zm0-3.16h2.265q1.081 0 1.859-.287.794-.287 1.3-.794.508-.507.744-1.2.254-.71.254-1.537 0-1.64-1.014-2.518-1.014-.896-3.11-.896h-2.297zm28.354 6.354q.355 0 .608.27l1.774 1.91q-1.216 1.706-3.058 2.602-1.825.895-4.343.895-2.28 0-4.106-.845-1.824-.862-3.109-2.382-1.267-1.538-1.96-3.633-.676-2.112-.676-4.613 0-2.518.727-4.613.744-2.112 2.078-3.633 1.335-1.52 3.194-2.365 1.859-.845 4.089-.845 2.264 0 4.005.81 1.74.795 2.906 2.113l-1.487 2.078q-.152.186-.355.338-.186.152-.54.152-.355 0-.693-.27-.321-.27-.811-.591-.474-.321-1.2-.592-.727-.27-1.859-.27-1.233 0-2.247.524-1.014.507-1.74 1.503-.727.98-1.133 2.417-.388 1.42-.388 3.244 0 1.842.44 3.278.438 1.436 1.182 2.433.76.98 1.774 1.504 1.014.507 2.18.507.693 0 1.25-.068.558-.084 1.03-.27.49-.203.913-.507.423-.304.845-.76.17-.135.338-.22.186-.101.372-.101zm22.659 5.44h-4.461v-9.715h-9.09v9.716h-4.461v-22.44h4.46v9.58h9.09v-9.58h4.462z" aria-label="SEARCH" style="-inkscape-font-specification:&quot;Carlito Bold&quot;" font-weight="700" font-size="34.6051px" font-family="Carlito" fill="#c27a48" stroke-width=".766325"/></svg>