<?xml version="1.0" encoding="UTF-8" standalone="no"?>
<svg
   width="853.677"
   height="146.304"
   viewBox="0 0 225.869 38.71"
   version="1.1"
   id="svg1"
   sodipodi:docname="searxng-logo.svg"
   inkscape:version="1.3 (0e150ed6c4, 2023-07-21)"
   xmlns:inkscape="http://www.inkscape.org/namespaces/inkscape"
   xmlns:sodipodi="http://sodipodi.sourceforge.net/DTD/sodipodi-0.dtd"
   xmlns="http://www.w3.org/2000/svg"
   xmlns:svg="http://www.w3.org/2000/svg">
  <defs
     id="defs1" />
  <sodipodi:namedview
     id="namedview1"
     pagecolor="#ffffff"
     bordercolor="#000000"
     borderopacity="0.25"
     inkscape:showpageshadow="2"
     inkscape:pageopacity="0.0"
     inkscape:pagecheckerboard="0"
     inkscape:deskcolor="#d1d1d1"
     inkscape:zoom="0.56780457"
     inkscape:cx="124.16244"
     inkscape:cy="221.02675"
     inkscape:window-width="1920"
     inkscape:window-height="1011"
     inkscape:window-x="1920"
     inkscape:window-y="0"
     inkscape:window-maximized="1"
     inkscape:current-layer="svg1" />
  <path
     d="M 43.90085,4.2095572 C 43.558262,3.6192761 43.760913,2.8617231 44.351199,2.519135 44.94148,2.1765469 45.699033,2.3776028 46.041623,2.9694847 l 1.589094,2.7503545 c 0.342588,0.5902811 0.139936,1.3478358 -0.45035,1.6904239 -0.590281,0.342588 -1.34784,0.1415322 -1.690424,-0.4503514 z m 9.880367,4.0788888 c 3.057558,0 5.823995,1.2384633 7.828054,3.242524 2.002454,2.004059 3.242525,4.772106 3.242525,7.828057 0,3.057558 -1.238465,5.823997 -3.242525,7.828056 -2.004059,2.004059 -4.770496,3.242523 -7.828054,3.242523 -3.057557,0 -5.823997,-1.238464 -7.828061,-3.242523 -2.002446,-2.004059 -3.24252,-4.770498 -3.24252,-7.828056 0,-3.057559 1.238462,-5.823998 3.24252,-7.828057 2.004064,-2.0024516 4.772108,-3.242524 7.828061,-3.242524 z m 6.155327,4.915254 c -1.57462,-1.574618 -3.750778,-2.549306 -6.155327,-2.549306 -2.404549,0 -4.580707,0.974688 -6.155327,2.549306 -1.57462,1.574617 -2.549306,3.750777 -2.549306,6.155327 0,2.404549 0.974686,4.580707 2.549306,6.155326 1.57462,1.574618 3.750778,2.549306 6.155327,2.549306 2.404549,0 4.580707,-0.974688 6.155327,-2.549306 1.574613,-1.574619 2.549306,-3.750777 2.549306,-6.155326 0,-2.40455 -0.974693,-4.58071 -2.549306,-6.155327 z M 52.796878,1.2983639 c 0,-0.68517604 0.554894,-1.2400724 1.240072,-1.2400724 0.685179,0 1.240074,0.55489636 1.240074,1.2400724 v 3.1765787 c 0,0.6851761 -0.554895,1.2400724 -1.240074,1.2400724 -0.685178,0 -1.240072,-0.5548963 -1.240072,-1.2400724 z m 9.16624,1.9316803 c 0.339374,-0.5902793 1.093711,-0.7945469 1.685597,-0.4551754 0.590279,0.3393714 0.79455,1.0937094 0.455177,1.6855981 L 62.514798,7.2108213 C 62.175429,7.8011024 61.421092,8.0053682 60.829202,7.6659969 60.238921,7.3266254 60.034651,6.5722889 60.374024,5.9803988 Z m 6.967565,6.2486138 c 0.590282,-0.3425881 1.347835,-0.1399364 1.690424,0.4503497 0.342588,0.5902813 0.141533,1.3478353 -0.450349,1.6904243 l -2.750355,1.589094 c -0.590279,0.342585 -1.347833,0.139935 -1.690421,-0.450352 -0.34259,-0.590281 -0.14155,-1.347834 0.450349,-1.690422 z m 2.911198,8.896032 c 0.685171,0 1.240071,0.554896 1.240071,1.24007 0,0.685176 -0.5549,1.240073 -1.240071,1.240073 h -3.176585 c -0.685171,0 -1.240072,-0.554897 -1.240072,-1.240073 0,-0.685174 0.554901,-1.24007 1.240072,-1.24007 z m -1.931684,9.16624 c 0.59028,0.339369 0.794543,1.093708 0.455177,1.685597 -0.339374,0.59028 -1.093711,0.794546 -1.685596,0.455175 l -2.75036,-1.589093 c -0.590281,-0.339372 -0.794544,-1.093709 -0.455171,-1.685598 0.339367,-0.59028 1.093706,-0.794546 1.685597,-0.455175 z m -6.248614,6.967563 c 0.34259,0.590282 0.139936,1.347836 -0.450349,1.690424 -0.59028,0.342588 -1.347835,0.141533 -1.690423,-0.450351 l -1.589094,-2.750354 c -0.342589,-0.590282 -0.139937,-1.347835 0.45035,-1.690423 0.590282,-0.342588 1.347834,-0.141531 1.690424,0.450352 z m -8.896026,2.911195 c 0,0.685176 -0.554902,1.240073 -1.240074,1.240073 -0.685177,0 -1.240073,-0.554897 -1.240073,-1.240073 V 34.24311 c 0,-0.685176 0.554896,-1.240073 1.240073,-1.240073 0.685172,0 1.240074,0.554897 1.240074,1.240073 z m -9.166241,-1.931681 c -0.339373,0.59028 -1.093711,0.794547 -1.685603,0.455175 -0.590279,-0.339372 -0.794543,-1.093708 -0.455177,-1.685597 l 1.589094,-2.750356 c 0.339373,-0.590279 1.093711,-0.794546 1.685603,-0.455173 0.590279,0.339369 0.794543,1.093708 0.455175,1.685597 z m -6.967564,-6.248612 c -0.590281,0.342588 -1.347834,0.139935 -1.690424,-0.450351 -0.34259,-0.59028 -0.141532,-1.347835 0.45035,-1.690423 l 2.750354,-1.589094 c 0.590279,-0.342588 1.347832,-0.139937 1.690422,0.450351 0.342587,0.59028 0.141548,1.347835 -0.45035,1.690423 z m -2.911196,-8.896032 c -0.685178,0 -1.240073,-0.554895 -1.240073,-1.240071 0,-0.685176 0.554895,-1.240073 1.240073,-1.240073 h 3.176576 c 0.685178,0 1.240072,0.554897 1.240072,1.240073 0,0.685176 -0.554894,1.240071 -1.240072,1.240071 z m 1.931683,-9.16624 C 37.061958,10.837751 36.857689,10.083415 37.197062,9.4915246 37.536435,8.9012435 38.290766,8.6969777 38.882658,9.036349 l 2.750352,1.589094 c 0.590281,0.339371 0.79455,1.093708 0.455177,1.685598 -0.339373,0.590281 -1.093704,0.794547 -1.685596,0.455176 z"
     id="path1"
     style="fill:#c27a48;fill-opacity:1;stroke-width:0.16084" />
  <text
     xml:space="preserve"
     style="font-style:normal;font-variant:normal;font-weight:bold;font-stretch:normal;font-size:10.2304px;font-family:Carlito;-inkscape-font-specification:'Carlito Bold';fill:#c27a48;stroke-width:0.852538"
     x="80.925842"
     y="9.9544086"
     id="text1"><tspan
       sodipodi:role="line"
       style="font-style:normal;font-variant:normal;font-weight:bold;font-stretch:normal;font-family:Carlito;-inkscape-font-specification:'Carlito Bold';stroke-width:0.852538"
       x="80.925842"
       y="9.9544086"
       id="tspan2">Monotonous</tspan></text>
  <text
     xml:space="preserve"
     style="font-style:normal;font-variant:normal;font-weight:bold;font-stretch:normal;font-size:34.6051px;font-family:Carlito;-inkscape-font-specification:'Carlito Bold';fill:#c27a48;stroke-width:0.766325"
     x="79.919769"
     y="34.828518"
     id="text1-1"><tspan
       sodipodi:role="line"
       style="font-style:normal;font-variant:normal;font-weight:bold;font-stretch:normal;font-size:34.6051px;font-family:Carlito;-inkscape-font-specification:'Carlito Bold';stroke-width:0.766325"
       x="79.919769"
       y="34.828518"
       id="tspan2-5">SEARCH</tspan></text>
</svg>
