<svg width="853.677" height="146.304" viewBox="0 0 225.869 38.71"><path d="M43.9 4.21a1.238 1.238 0 0 1 2.142-1.24l1.589 2.75a1.238 1.238 0 0 1-2.141 1.24zm9.881 4.078c3.058 0 5.824 1.239 7.828 3.243a11.043 11.043 0 0 1 3.243 7.828c0 3.058-1.239 5.824-3.243 7.828a11.033 11.033 0 0 1-7.828 3.243 11.033 11.033 0 0 1-7.828-3.243 11.04 11.04 0 0 1-3.242-7.828c0-3.058 1.238-5.824 3.242-7.828a11.043 11.043 0 0 1 7.828-3.243zm6.156 4.916a8.678 8.678 0 0 0-6.156-2.55c-2.404 0-4.58.975-6.155 2.55a8.678 8.678 0 0 0-2.55 6.155c0 2.405.975 4.58 2.55 6.155a8.678 8.678 0 0 0 6.155 2.55c2.405 0 4.58-.975 6.156-2.55a8.678 8.678 0 0 0 2.549-6.155c0-2.405-.975-4.58-2.55-6.155zm-7.14-11.906a1.24 1.24 0 1 1 2.48 0v3.177a1.24 1.24 0 1 1-2.48 0zm9.166 1.932a1.235 1.235 0 0 1 2.14 1.23l-1.588 2.75a1.235 1.235 0 0 1-2.141-1.23Zm6.968 6.249a1.238 1.238 0 0 1 1.24 2.14l-2.75 1.59a1.238 1.238 0 0 1-1.24-2.141zm2.91 8.896a1.24 1.24 0 1 1 0 2.48h-3.176a1.24 1.24 0 1 1 0-2.48zm-1.93 9.166a1.235 1.235 0 0 1-1.231 2.14l-2.75-1.588a1.235 1.235 0 0 1 1.23-2.141zm-6.25 6.967a1.238 1.238 0 0 1-2.14 1.24l-1.59-2.75a1.238 1.238 0 0 1 2.141-1.24zm-8.895 2.912a1.24 1.24 0 1 1-2.48 0v-3.177a1.24 1.24 0 1 1 2.48 0zm-9.167-1.932a1.235 1.235 0 0 1-2.14-1.23l1.589-2.75a1.235 1.235 0 0 1 2.14 1.23zm-6.967-6.249a1.238 1.238 0 0 1-1.24-2.14l2.75-1.59a1.238 1.238 0 0 1 1.24 2.141zm-2.911-8.896a1.24 1.24 0 1 1 0-2.48h3.176a1.24 1.24 0 1 1 0 2.48zm1.931-9.166a1.235 1.235 0 0 1 1.23-2.14l2.751 1.588a1.235 1.235 0 0 1-1.23 2.141z" fill="#c27a48" fill-opacity="1" stroke-width=".16084"/><text xml:space="preserve" x="80.926" y="9.954" style="-inkscape-font-specification:&quot;Carlito Bold&quot;" font-style="normal" font-variant="normal" font-weight="700" font-stretch="normal" font-size="10.2304px" font-family="Carlito" fill="#c27a48" stroke-width=".852538"><tspan x="80.926" y="9.954" style="-inkscape-font-specification:&quot;Carlito Bold&quot;" font-style="normal" font-variant="normal" font-weight="700" font-stretch="normal" font-family="Carlito" stroke-width=".852538">Monotonous</tspan></text><text xml:space="preserve" x="79.92" y="34.829" style="-inkscape-font-specification:&quot;Carlito Bold&quot;" font-style="normal" font-variant="normal" font-weight="700" font-stretch="normal" font-size="34.6051px" font-family="Carlito" fill="#c27a48" stroke-width=".766325"><tspan x="79.92" y="34.829" style="-inkscape-font-specification:&quot;Carlito Bold&quot;" font-style="normal" font-variant="normal" font-weight="700" font-stretch="normal" font-size="34.6051px" font-family="Carlito" stroke-width=".766325">SEARCH</tspan></text></svg>