<?xml version="1.0" encoding="UTF-8" standalone="no"?>
<svg
   width="853.677"
   height="146.304"
   viewBox="0 0 225.869 38.71"
   version="1.1"
   id="svg1"
   sodipodi:docname="searxng.svg"
   inkscape:version="1.3 (0e150ed6c4, 2023-07-21)"
   xmlns:inkscape="http://www.inkscape.org/namespaces/inkscape"
   xmlns:sodipodi="http://sodipodi.sourceforge.net/DTD/sodipodi-0.dtd"
   xmlns="http://www.w3.org/2000/svg"
   xmlns:svg="http://www.w3.org/2000/svg">
  <defs
     id="defs1" />
  <sodipodi:namedview
     id="namedview1"
     pagecolor="#ffffff"
     bordercolor="#000000"
     borderopacity="0.25"
     inkscape:showpageshadow="2"
     inkscape:pageopacity="0.0"
     inkscape:pagecheckerboard="0"
     inkscape:deskcolor="#d1d1d1"
     inkscape:zoom="1.6059938"
     inkscape:cx="398.81846"
     inkscape:cy="136.05283"
     inkscape:window-width="1920"
     inkscape:window-height="1011"
     inkscape:window-x="1920"
     inkscape:window-y="0"
     inkscape:window-maximized="1"
     inkscape:current-layer="svg1" />
  <path
     d="M 43.90085,4.2095572 C 43.558262,3.6192761 43.760913,2.8617231 44.351199,2.519135 44.94148,2.1765469 45.699033,2.3776028 46.041623,2.9694847 l 1.589094,2.7503545 c 0.342588,0.5902811 0.139936,1.3478358 -0.45035,1.6904239 -0.590281,0.342588 -1.34784,0.1415322 -1.690424,-0.4503514 z m 9.880367,4.0788888 c 3.057558,0 5.823995,1.2384633 7.828054,3.242524 2.002454,2.004059 3.242525,4.772106 3.242525,7.828057 0,3.057558 -1.238465,5.823997 -3.242525,7.828056 -2.004059,2.004059 -4.770496,3.242523 -7.828054,3.242523 -3.057557,0 -5.823997,-1.238464 -7.828061,-3.242523 -2.002446,-2.004059 -3.24252,-4.770498 -3.24252,-7.828056 0,-3.057559 1.238462,-5.823998 3.24252,-7.828057 2.004064,-2.0024516 4.772108,-3.242524 7.828061,-3.242524 z m 6.155327,4.915254 c -1.57462,-1.574618 -3.750778,-2.549306 -6.155327,-2.549306 -2.404549,0 -4.580707,0.974688 -6.155327,2.549306 -1.57462,1.574617 -2.549306,3.750777 -2.549306,6.155327 0,2.404549 0.974686,4.580707 2.549306,6.155326 1.57462,1.574618 3.750778,2.549306 6.155327,2.549306 2.404549,0 4.580707,-0.974688 6.155327,-2.549306 1.574613,-1.574619 2.549306,-3.750777 2.549306,-6.155326 0,-2.40455 -0.974693,-4.58071 -2.549306,-6.155327 z M 52.796878,1.2983639 c 0,-0.68517604 0.554894,-1.2400724 1.240072,-1.2400724 0.685179,0 1.240074,0.55489636 1.240074,1.2400724 v 3.1765787 c 0,0.6851761 -0.554895,1.2400724 -1.240074,1.2400724 -0.685178,0 -1.240072,-0.5548963 -1.240072,-1.2400724 z m 9.16624,1.9316803 c 0.339374,-0.5902793 1.093711,-0.7945469 1.685597,-0.4551754 0.590279,0.3393714 0.79455,1.0937094 0.455177,1.6855981 L 62.514798,7.2108213 C 62.175429,7.8011024 61.421092,8.0053682 60.829202,7.6659969 60.238921,7.3266254 60.034651,6.5722889 60.374024,5.9803988 Z m 6.967565,6.2486138 c 0.590282,-0.3425881 1.347835,-0.1399364 1.690424,0.4503497 0.342588,0.5902813 0.141533,1.3478353 -0.450349,1.6904243 l -2.750355,1.589094 c -0.590279,0.342585 -1.347833,0.139935 -1.690421,-0.450352 -0.34259,-0.590281 -0.14155,-1.347834 0.450349,-1.690422 z m 2.911198,8.896032 c 0.685171,0 1.240071,0.554896 1.240071,1.24007 0,0.685176 -0.5549,1.240073 -1.240071,1.240073 h -3.176585 c -0.685171,0 -1.240072,-0.554897 -1.240072,-1.240073 0,-0.685174 0.554901,-1.24007 1.240072,-1.24007 z m -1.931684,9.16624 c 0.59028,0.339369 0.794543,1.093708 0.455177,1.685597 -0.339374,0.59028 -1.093711,0.794546 -1.685596,0.455175 l -2.75036,-1.589093 c -0.590281,-0.339372 -0.794544,-1.093709 -0.455171,-1.685598 0.339367,-0.59028 1.093706,-0.794546 1.685597,-0.455175 z m -6.248614,6.967563 c 0.34259,0.590282 0.139936,1.347836 -0.450349,1.690424 -0.59028,0.342588 -1.347835,0.141533 -1.690423,-0.450351 l -1.589094,-2.750354 c -0.342589,-0.590282 -0.139937,-1.347835 0.45035,-1.690423 0.590282,-0.342588 1.347834,-0.141531 1.690424,0.450352 z m -8.896026,2.911195 c 0,0.685176 -0.554902,1.240073 -1.240074,1.240073 -0.685177,0 -1.240073,-0.554897 -1.240073,-1.240073 V 34.24311 c 0,-0.685176 0.554896,-1.240073 1.240073,-1.240073 0.685172,0 1.240074,0.554897 1.240074,1.240073 z m -9.166241,-1.931681 c -0.339373,0.59028 -1.093711,0.794547 -1.685603,0.455175 -0.590279,-0.339372 -0.794543,-1.093708 -0.455177,-1.685597 l 1.589094,-2.750356 c 0.339373,-0.590279 1.093711,-0.794546 1.685603,-0.455173 0.590279,0.339369 0.794543,1.093708 0.455175,1.685597 z m -6.967564,-6.248612 c -0.590281,0.342588 -1.347834,0.139935 -1.690424,-0.450351 -0.34259,-0.59028 -0.141532,-1.347835 0.45035,-1.690423 l 2.750354,-1.589094 c 0.590279,-0.342588 1.347832,-0.139937 1.690422,0.450351 0.342587,0.59028 0.141548,1.347835 -0.45035,1.690423 z m -2.911196,-8.896032 c -0.685178,0 -1.240073,-0.554895 -1.240073,-1.240071 0,-0.685176 0.554895,-1.240073 1.240073,-1.240073 h 3.176576 c 0.685178,0 1.240072,0.554897 1.240072,1.240073 0,0.685176 -0.554894,1.240071 -1.240072,1.240071 z m 1.931683,-9.16624 C 37.061958,10.837751 36.857689,10.083415 37.197062,9.4915246 37.536435,8.9012435 38.290766,8.6969777 38.882658,9.036349 l 2.750352,1.589094 c 0.590281,0.339371 0.79455,1.093708 0.455177,1.685598 -0.339373,0.590281 -1.093704,0.794547 -1.685596,0.455176 z"
     id="path1"
     style="fill:#c27a48;fill-opacity:1;stroke-width:0.16084" />
  <path
     d="m 85.111914,7.1220664 q 0.169841,0.3147047 0.294724,0.654386 0.06993,-0.174836 0.139868,-0.3396813 0.06994,-0.1698406 0.154855,-0.3246953 l 2.043083,-3.5866344 q 0.03996,-0.07493 0.07993,-0.1148922 0.04496,-0.044958 0.09491,-0.059944 0.04995,-0.019981 0.114892,-0.024977 0.06494,-0.005 0.149859,-0.005 h 0.989072 v 6.633775 H 88.019186 V 5.8033039 q 0,-0.1348734 0.005,-0.2897281 0.01,-0.15985 0.02498,-0.3246953 l -2.093036,3.7065219 q -0.154855,0.2897281 -0.454573,0.2897281 h -0.184827 q -0.304714,0 -0.459569,-0.2897281 L 82.739141,5.1688992 q 0.01998,0.1698407 0.02997,0.334686 0.01,0.15985 0.01,0.2997187 v 4.1511047 h -1.158912 v -6.633775 h 0.994067 q 0.08492,0 0.144864,0.005 0.06494,0.005 0.114892,0.024977 0.05495,0.019981 0.09491,0.059944 0.04496,0.039962 0.08492,0.1148922 l 2.058069,3.596625 z m 7.51295,-2.2079281 q 0.544489,0 0.994067,0.1798312 0.449579,0.174836 0.769279,0.5095219 0.3197,0.3296906 0.494535,0.8042453 0.174836,0.4695594 0.174836,1.054011 0,0.5944422 -0.174836,1.0689969 -0.174835,0.4745547 -0.494535,0.8092406 -0.3197,0.3296906 -0.769279,0.5095219 -0.449578,0.1798309 -0.994067,0.1798309 -0.549484,0 -1.004058,-0.1798309 -0.449578,-0.1798313 -0.774273,-0.5095219 -0.3197,-0.3346859 -0.494536,-0.8092406 -0.174836,-0.4745547 -0.174836,-1.0689969 0,-0.5844516 0.174836,-1.054011 0.174836,-0.4745547 0.494536,-0.8042453 0.324695,-0.3346859 0.774273,-0.5095219 0.454574,-0.1798312 1.004058,-0.1798312 z m 0,4.1461094 q 0.574461,0 0.849203,-0.399625 0.274743,-0.4046203 0.274743,-1.1888844 0,-0.7842641 -0.274743,-1.1838891 -0.274742,-0.4046203 -0.849203,-0.4046203 -0.584451,0 -0.864189,0.4046203 -0.274742,0.399625 -0.274742,1.1838891 0,0.7842641 0.274742,1.1888844 0.279738,0.399625 0.864189,0.399625 z m 3.361845,0.8941609 V 4.9940633 h 0.779269 q 0.119888,0 0.199813,0.054948 0.08492,0.054949 0.109896,0.1698407 l 0.08492,0.3646578 q 0.149859,-0.1498594 0.309709,-0.2697469 0.15985,-0.1248828 0.344677,-0.2098031 0.184826,-0.089916 0.389634,-0.1398688 0.209803,-0.049953 0.459569,-0.049953 0.40462,0 0.714329,0.1398687 0.30971,0.1398688 0.519513,0.3896344 0.209801,0.2497656 0.314701,0.5994375 0.1099,0.3446766 0.1099,0.7542922 V 9.9544086 H 99.053831 V 6.7973711 q 0,-0.4246015 -0.194817,-0.6593812 -0.194817,-0.2347797 -0.584452,-0.2347797 -0.289728,0 -0.544489,0.1248828 -0.249765,0.1248828 -0.474554,0.3496719 v 3.5766437 z m 7.627841,-5.0402703 q 0.54449,0 0.99407,0.1798312 0.44958,0.174836 0.76928,0.5095219 0.3197,0.3296906 0.49453,0.8042453 0.17484,0.4695594 0.17484,1.054011 0,0.5944422 -0.17484,1.0689969 -0.17483,0.4745547 -0.49453,0.8092406 -0.3197,0.3296906 -0.76928,0.5095219 -0.44958,0.1798309 -0.99407,0.1798309 -0.54948,0 -1.00406,-0.1798309 -0.44957,-0.1798313 -0.77427,-0.5095219 -0.3197,-0.3346859 -0.49454,-0.8092406 -0.17483,-0.4745547 -0.17483,-1.0689969 0,-0.5844516 0.17483,-1.054011 0.17484,-0.4745547 0.49454,-0.8042453 0.3247,-0.3346859 0.77427,-0.5095219 0.45458,-0.1798312 1.00406,-0.1798312 z m 0,4.1461094 q 0.57446,0 0.84921,-0.399625 0.27474,-0.4046203 0.27474,-1.1888844 0,-0.7842641 -0.27474,-1.1838891 -0.27475,-0.4046203 -0.84921,-0.4046203 -0.58445,0 -0.86419,0.4046203 -0.27474,0.399625 -0.27474,1.1838891 0,0.7842641 0.27474,1.1888844 0.27974,0.399625 0.86419,0.399625 z m 4.86044,0.9690903 q -0.64439,0 -0.98907,-0.3696528 -0.34468,-0.3746484 -0.34468,-1.0240391 V 5.9281867 h -0.44957 q -0.0999,0 -0.16985,-0.064939 -0.0699,-0.069934 -0.0699,-0.1998125 V 5.1589086 l 0.75429,-0.1448641 0.26475,-1.3087718 q 0.045,-0.2048079 0.27974,-0.2048079 h 0.65938 v 1.5285657 h 1.22385 v 0.8991562 h -1.22385 v 2.6225391 q 0,0.2197938 0.0949,0.3446766 0.0949,0.1198875 0.26975,0.1198875 0.0949,0 0.15486,-0.019981 0.0649,-0.024976 0.10989,-0.054948 0.045,-0.029972 0.0799,-0.049953 0.04,-0.024977 0.0849,-0.024977 0.0549,0 0.0899,0.029972 0.035,0.024976 0.0749,0.08492 l 0.38464,0.6144234 q -0.25975,0.2147985 -0.59444,0.3246954 -0.32969,0.1098965 -0.68436,0.1098965 z m 4.08617,-5.1151997 q 0.54449,0 0.99406,0.1798312 0.44958,0.174836 0.76928,0.5095219 0.3197,0.3296906 0.49454,0.8042453 0.17484,0.4695594 0.17484,1.054011 0,0.5944422 -0.17484,1.0689969 -0.17484,0.4745547 -0.49454,0.8092406 -0.3197,0.3296906 -0.76928,0.5095219 -0.44957,0.1798309 -0.99406,0.1798309 -0.54949,0 -1.00406,-0.1798309 -0.44958,-0.1798313 -0.77427,-0.5095219 -0.3197,-0.3346859 -0.49454,-0.8092406 -0.17484,-0.4745547 -0.17484,-1.0689969 0,-0.5844516 0.17484,-1.054011 0.17484,-0.4745547 0.49454,-0.8042453 0.32469,-0.3346859 0.77427,-0.5095219 0.45457,-0.1798312 1.00406,-0.1798312 z m 0,4.1461094 q 0.57446,0 0.8492,-0.399625 0.27474,-0.4046203 0.27474,-1.1888844 0,-0.7842641 -0.27474,-1.1838891 -0.27474,-0.4046203 -0.8492,-0.4046203 -0.58445,0 -0.86419,0.4046203 -0.27474,0.399625 -0.27474,1.1838891 0,0.7842641 0.27474,1.1888844 0.27974,0.399625 0.86419,0.399625 z M 115.923,9.9544086 V 4.9940633 h 0.77927 q 0.11989,0 0.19982,0.054948 0.0849,0.054949 0.10989,0.1698407 l 0.0849,0.3646578 q 0.14986,-0.1498594 0.30971,-0.2697469 0.15985,-0.1248828 0.34468,-0.2098031 0.18482,-0.089916 0.38963,-0.1398688 0.20981,-0.049953 0.45957,-0.049953 0.40462,0 0.71433,0.1398687 0.30971,0.1398688 0.51951,0.3896344 0.20981,0.2497656 0.31471,0.5994375 0.1099,0.3446766 0.1099,0.7542922 v 3.1570375 h -1.26881 V 6.7973711 q 0,-0.4246015 -0.19482,-0.6593812 -0.19482,-0.2347797 -0.58445,-0.2347797 -0.28973,0 -0.54449,0.1248828 -0.24977,0.1248828 -0.47456,0.3496719 v 3.5766437 z m 7.62785,-5.0402703 q 0.54449,0 0.99406,0.1798312 0.44958,0.174836 0.76928,0.5095219 0.3197,0.3296906 0.49454,0.8042453 0.17483,0.4695594 0.17483,1.054011 0,0.5944422 -0.17483,1.0689969 -0.17484,0.4745547 -0.49454,0.8092406 -0.3197,0.3296906 -0.76928,0.5095219 -0.44957,0.1798309 -0.99406,0.1798309 -0.54949,0 -1.00406,-0.1798309 -0.44958,-0.1798313 -0.77427,-0.5095219 -0.3197,-0.3346859 -0.49454,-0.8092406 -0.17484,-0.4745547 -0.17484,-1.0689969 0,-0.5844516 0.17484,-1.054011 0.17484,-0.4745547 0.49454,-0.8042453 0.32469,-0.3346859 0.77427,-0.5095219 0.45457,-0.1798312 1.00406,-0.1798312 z m 0,4.1461094 q 0.57446,0 0.8492,-0.399625 0.27474,-0.4046203 0.27474,-1.1888844 0,-0.7842641 -0.27474,-1.1838891 -0.27474,-0.4046203 -0.8492,-0.4046203 -0.58445,0 -0.86419,0.4046203 -0.27474,0.399625 -0.27474,1.1838891 0,0.7842641 0.27474,1.1888844 0.27974,0.399625 0.86419,0.399625 z m 4.54573,-4.0661844 v 3.1520422 q 0,0.4295969 0.19482,0.6643766 0.19481,0.2347797 0.58445,0.2347797 0.28473,0 0.53949,-0.1248829 0.25476,-0.1298781 0.47955,-0.3496718 V 4.9940633 h 1.26881 v 4.9603453 h -0.77927 q -0.11989,0 -0.20481,-0.054948 -0.0799,-0.059944 -0.1049,-0.1748359 l -0.0899,-0.3596625 q -0.29473,0.2947234 -0.65439,0.47955 -0.35467,0.1848262 -0.84421,0.1848262 -0.40462,0 -0.71433,-0.1398684 -0.30971,-0.1398688 -0.51951,-0.3896344 -0.2098,-0.2497656 -0.3197,-0.5944422 -0.1049,-0.3446766 -0.1049,-0.7592875 V 4.9940633 Z m 7.18326,0.9990625 q -0.05,0.08492 -0.1099,0.1198875 -0.0549,0.029972 -0.13987,0.029972 -0.0899,0 -0.18982,-0.044958 -0.0949,-0.049953 -0.2148,-0.1049016 -0.11489,-0.059944 -0.26475,-0.1049016 -0.14986,-0.049953 -0.34468,-0.049953 -0.29971,0 -0.46456,0.1398688 -0.16485,0.1348734 -0.16485,0.3646578 0,0.1548547 0.0949,0.2597562 0.0949,0.099906 0.24976,0.1798313 0.15985,0.07493 0.35467,0.1398687 0.19981,0.064939 0.40961,0.1398688 0.20981,0.07493 0.40462,0.1798312 0.19982,0.099906 0.35467,0.2497657 0.15985,0.1498593 0.25476,0.3646578 0.0949,0.2147984 0.0949,0.5145172 0,0.3596625 -0.12488,0.6643765 -0.12488,0.3047141 -0.36965,0.5245079 -0.23978,0.2197937 -0.59944,0.3446765 -0.35467,0.1248825 -0.82423,0.1248825 -0.23977,0 -0.47455,-0.044957 -0.23478,-0.044958 -0.44958,-0.1248828 -0.2148,-0.08492 -0.40462,-0.1948172 -0.18483,-0.1098969 -0.3197,-0.239775 l 0.29472,-0.47955 q 0.0549,-0.08492 0.12988,-0.1348734 0.0749,-0.049953 0.19482,-0.049953 0.1099,0 0.20481,0.059944 0.0999,0.059944 0.2148,0.1348734 0.11489,0.069934 0.27474,0.1298782 0.15985,0.059944 0.39962,0.059944 0.17983,0 0.30472,-0.044958 0.12987,-0.044958 0.2048,-0.1198875 0.0799,-0.079925 0.1149,-0.1798313 0.04,-0.099906 0.04,-0.2048078 0,-0.2197937 -0.16485,-0.3396812 -0.16484,-0.1248828 -0.41461,-0.2147985 -0.24976,-0.089916 -0.53949,-0.1848265 -0.28473,-0.094911 -0.5345,-0.2597563 -0.24977,-0.1648453 -0.41461,-0.4345922 -0.16485,-0.2697468 -0.16485,-0.7143297 0,-0.3097093 0.1149,-0.5844515 0.11489,-0.2797375 0.33968,-0.4895407 0.22978,-0.2098031 0.56447,-0.3346859 0.33968,-0.1248828 0.78926,-0.1248828 0.24477,0 0.47455,0.044958 0.22979,0.044958 0.4296,0.1298781 0.20481,0.079925 0.36965,0.1948172 0.16984,0.1148922 0.29972,0.2497656 z"
     id="text1"
     style="font-weight:bold;font-size:10.2304px;font-family:Carlito;-inkscape-font-specification:'Carlito Bold';fill:#c27a48;stroke-width:0.852538"
     aria-label="Monotonous" />
  <path
     d="m 93.792223,16.613529 q -0.16897,0.337941 -0.405528,0.490014 -0.219661,0.135176 -0.557602,0.135176 -0.321043,0 -0.692778,-0.236558 -0.371734,-0.236558 -0.878645,-0.506911 -0.490013,-0.287249 -1.148997,-0.523807 -0.658984,-0.236559 -1.520732,-0.236559 -1.520732,0 -2.297995,0.743469 -0.760366,0.743469 -0.760366,1.943158 0,0.760366 0.405529,1.267276 0.422425,0.490014 1.098306,0.861748 0.692778,0.354838 1.554526,0.642087 0.878645,0.287249 1.791084,0.62519 0.912439,0.321043 1.774187,0.777263 0.878645,0.439322 1.554526,1.115203 0.692778,0.675881 1.098307,1.655908 0.422425,0.980027 0.422425,2.38248 0,1.520732 -0.50691,2.855597 -0.490014,1.334864 -1.453144,2.331789 -0.96313,0.980027 -2.365583,1.554525 -1.385556,0.574499 -3.17664,0.574499 -1.013821,0 -2.027643,-0.219661 -0.996924,-0.202764 -1.92626,-0.591396 -0.929336,-0.388631 -1.75729,-0.929336 -0.827954,-0.540705 -1.453144,-1.216585 l 1.317968,-2.112128 q 0.152073,-0.253455 0.405528,-0.405529 0.270353,-0.152073 0.574499,-0.152073 0.405528,0 0.827954,0.321044 0.439322,0.304146 1.013821,0.692778 0.574499,0.371734 1.334865,0.692777 0.760366,0.304147 1.807981,0.304147 1.520732,0 2.365583,-0.777263 0.844851,-0.777263 0.844851,-2.297995 0,-0.861748 -0.422425,-1.402453 -0.405529,-0.540704 -1.08141,-0.895542 -0.675881,-0.371734 -1.554526,-0.62519 -0.861748,-0.270352 -1.774187,-0.574498 -0.895542,-0.304147 -1.774187,-0.726572 -0.861748,-0.439323 -1.537629,-1.148998 -0.675881,-0.709675 -1.098306,-1.75729 -0.405529,-1.047615 -0.405529,-2.602141 0,-1.233483 0.473117,-2.399377 0.473116,-1.182791 1.385555,-2.095231 0.91244,-0.912439 2.230407,-1.453143 1.334865,-0.557602 3.041464,-0.557602 1.92626,0 3.565271,0.62519 1.655908,0.625189 2.821803,1.75729 z m 18.164297,-4.224255 v 3.531478 h -9.22577 v 5.930854 h 7.18123 v 3.396301 h -7.18123 v 6.049134 h 9.24267 l -0.0169,3.531477 H 98.269933 V 12.389274 Z m 21.72957,22.439244 h -3.4132 q -0.59139,0 -0.94623,-0.270352 -0.35484,-0.28725 -0.52381,-0.709675 l -1.41935,-4.410123 h -8.26264 l -1.40246,4.393226 q -0.13517,0.371734 -0.5238,0.692778 -0.37174,0.304146 -0.92934,0.304146 h -3.46389 l 8.17816,-22.439244 h 4.5284 z m -13.56831,-8.499202 h 6.2519 l -2.2811,-7.096748 q -0.20276,-0.523808 -0.42242,-1.216586 -0.21967,-0.709675 -0.43933,-1.537629 -0.20276,0.827954 -0.42242,1.537629 -0.21966,0.709675 -0.40553,1.233483 z m 20.03987,-0.135176 v 8.634378 h -4.46081 V 12.389274 h 6.7588 q 2.24731,0 3.85253,0.490014 1.60521,0.473116 2.61903,1.334864 1.03072,0.861749 1.50384,2.061437 0.47311,1.199688 0.47311,2.635935 0,1.098307 -0.30414,2.095231 -0.30415,0.980027 -0.89554,1.807981 -0.5745,0.811057 -1.41935,1.453144 -0.84485,0.62519 -1.94316,1.013821 0.42242,0.236558 0.79416,0.574499 0.37173,0.321043 0.69278,0.79416 l 5.01841,8.178158 h -4.00459 q -1.06451,0 -1.63901,-0.895542 l -4.08908,-6.995367 q -0.25346,-0.405528 -0.5745,-0.574499 -0.30415,-0.16897 -0.87865,-0.16897 z m 0,-3.159743 h 2.2642 q 1.08141,0 1.85867,-0.287249 0.79416,-0.287249 1.30107,-0.79416 0.50691,-0.506911 0.74347,-1.199688 0.25346,-0.709675 0.25346,-1.537629 0,-1.639011 -1.01382,-2.517656 -1.01382,-0.895543 -3.10906,-0.895543 h -2.29799 z m 28.3532,6.35328 q 0.35483,0 0.60829,0.270353 l 1.77419,1.909363 q -1.21659,1.706599 -3.05836,2.602141 -1.82488,0.895542 -4.34254,0.895542 -2.2811,0 -4.10597,-0.844851 -1.82488,-0.861748 -3.10906,-2.38248 -1.26727,-1.537629 -1.96005,-3.632859 -0.67588,-2.112128 -0.67588,-4.612887 0,-2.517656 0.72657,-4.612887 0.74347,-2.112127 2.07833,-3.632859 1.33487,-1.520732 3.19354,-2.365583 1.85867,-0.844851 4.08908,-0.844851 2.2642,0 4.00459,0.811057 1.7404,0.79416 2.90629,2.112128 l -1.48694,2.078333 q -0.15207,0.185867 -0.35483,0.33794 -0.18587,0.152074 -0.54071,0.152074 -0.35484,0 -0.69278,-0.270353 -0.32104,-0.270352 -0.81105,-0.591395 -0.47312,-0.321044 -1.19969,-0.591396 -0.72657,-0.270352 -1.85867,-0.270352 -1.23349,0 -2.24731,0.523807 -1.01382,0.506911 -1.74039,1.503835 -0.72657,0.980027 -1.1321,2.416274 -0.38863,1.41935 -0.38863,3.244228 0,1.841775 0.43932,3.278022 0.43932,1.436247 1.18279,2.433171 0.76037,0.980027 1.77419,1.503835 1.01382,0.506911 2.17971,0.506911 0.69278,0 1.25038,-0.06759 0.5576,-0.08448 1.03072,-0.270352 0.49002,-0.202764 0.91244,-0.50691 0.42243,-0.304147 0.84485,-0.760366 0.16897,-0.135177 0.33794,-0.219662 0.18587,-0.101382 0.37174,-0.101382 z m 22.65891,5.440841 h -4.46082 v -9.715787 h -9.09059 v 9.715787 h -4.46082 V 12.389274 h 4.46082 v 9.580611 h 9.09059 v -9.580611 h 4.46082 z"
     id="text1-1"
     style="font-weight:bold;font-size:34.6051px;font-family:Carlito;-inkscape-font-specification:'Carlito Bold';fill:#c27a48;stroke-width:0.766325"
     aria-label="SEARCH" />
</svg>
